<svg width="93" height="130" viewBox="0 0 93 130" fill="none" xmlns="http://www.w3.org/2000/svg">
<path opacity="0.15" d="M92.207 107.148V130H2.91016V110.664L44.043 67.4219C47.6758 63.2617 50.6055 59.541 52.832 56.2598C55.0586 52.9199 56.6699 49.9023 57.666 47.207C58.7207 44.5117 59.248 42.0801 59.248 39.9121C59.248 36.2207 58.6914 33.1445 57.5781 30.6836C56.5234 28.1641 54.9414 26.2598 52.832 24.9707C50.7812 23.6816 48.2324 23.0371 45.1855 23.0371C42.1387 23.0371 39.4727 23.916 37.1875 25.6738C34.9023 27.4316 33.1152 29.834 31.8262 32.8809C30.5957 35.9277 29.9805 39.3555 29.9805 43.1641H0.273438C0.273438 35.3125 2.17773 28.1348 5.98633 21.6309C9.85352 15.127 15.2148 9.94141 22.0703 6.07422C28.9258 2.14844 36.8652 0.185547 45.8887 0.185547C55.3223 0.185547 63.2324 1.65039 69.6191 4.58008C76.0059 7.50977 80.8105 11.7578 84.0332 17.3242C87.3145 22.832 88.9551 29.4824 88.9551 37.2754C88.9551 41.7285 88.252 46.0059 86.8457 50.1074C85.4395 54.209 83.418 58.2812 80.7812 62.3242C78.1445 66.3086 74.9219 70.4102 71.1133 74.6289C67.3633 78.8477 63.0859 83.3301 58.2812 88.0762L41.7578 107.148H92.207Z" fill="black"/>
</svg>
