<svg width="94" height="132" viewBox="0 0 94 132" fill="none" xmlns="http://www.w3.org/2000/svg">
<path opacity="0.15" d="M30.8926 53.623H45.3066C48.998 53.623 52.0156 52.9785 54.3594 51.6895C56.7617 50.3418 58.5488 48.4668 59.7207 46.0645C60.8926 43.6035 61.4785 40.7031 61.4785 37.3633C61.4785 34.7852 60.9219 32.4121 59.8086 30.2441C58.7539 28.0762 57.1133 26.3477 54.8867 25.0586C52.6602 23.7109 49.8184 23.0371 46.3613 23.0371C44.0176 23.0371 41.7324 23.5352 39.5059 24.5312C37.2793 25.4688 35.4336 26.8164 33.9688 28.5742C32.5625 30.332 31.8594 32.4707 31.8594 34.9902H2.15234C2.15234 27.7246 4.14453 21.5137 8.12891 16.3574C12.1719 11.1426 17.4746 7.1582 24.0371 4.4043C30.6582 1.5918 37.7773 0.185547 45.3945 0.185547C54.4766 0.185547 62.4453 1.5918 69.3008 4.4043C76.1562 7.1582 81.4883 11.2598 85.2969 16.709C89.1641 22.0996 91.0977 28.7793 91.0977 36.748C91.0977 41.1426 90.0723 45.2734 88.0215 49.1406C85.9707 53.0078 83.0996 56.4062 79.4082 59.3359C75.7168 62.2656 71.3809 64.5801 66.4004 66.2793C61.4785 67.9199 56.0879 68.7402 50.2285 68.7402H30.8926V53.623ZM30.8926 75.6836V60.918H50.2285C56.6152 60.918 62.4453 61.6504 67.7188 63.1152C72.9922 64.5215 77.5332 66.6309 81.3418 69.4434C85.1504 72.2559 88.0801 75.7422 90.1309 79.9023C92.1816 84.0039 93.207 88.7207 93.207 94.0527C93.207 100.029 92.0059 105.361 89.6035 110.049C87.2012 114.736 83.832 118.691 79.4961 121.914C75.1602 125.137 70.0918 127.598 64.291 129.297C58.4902 130.938 52.1914 131.758 45.3945 131.758C40.0625 131.758 34.7305 131.055 29.3984 129.648C24.0664 128.184 19.2031 125.957 14.8086 122.969C10.4141 119.922 6.86914 116.055 4.17383 111.367C1.53711 106.621 0.21875 100.967 0.21875 94.4043H29.9258C29.9258 97.0996 30.6582 99.5605 32.123 101.787C33.6465 103.955 35.668 105.684 38.1875 106.973C40.707 108.262 43.4316 108.906 46.3613 108.906C49.9941 108.906 53.0703 108.232 55.5898 106.885C58.168 105.479 60.1309 103.604 61.4785 101.26C62.8262 98.916 63.5 96.3086 63.5 93.4375C63.5 89.1016 62.7676 85.6445 61.3027 83.0664C59.8965 80.4883 57.8164 78.6133 55.0625 77.4414C52.3672 76.2695 49.1152 75.6836 45.3066 75.6836H30.8926Z" fill="black"/>
</svg>
